<svg width="66" height="35" viewBox="0 0 66 35" fill="none" xmlns="http://www.w3.org/2000/svg">
<path d="M13.9453 23.6055H6.24023L4.77539 28H0.102539L8.04199 6.67188H12.1143L20.0977 28H15.4248L13.9453 23.6055ZM7.42676 20.0459H12.7588L10.0781 12.0625L7.42676 20.0459ZM29.8855 23.6201C29.8855 23.1025 29.6267 22.6973 29.1091 22.4043C28.6013 22.1016 27.781 21.833 26.6482 21.5986C22.8787 20.8076 20.9939 19.2061 20.9939 16.7939C20.9939 15.3877 21.575 14.2158 22.7371 13.2783C23.9089 12.3311 25.4373 11.8574 27.322 11.8574C29.3337 11.8574 30.9402 12.3311 32.1414 13.2783C33.3523 14.2256 33.9578 15.4561 33.9578 16.9697H29.7244C29.7244 16.3643 29.5291 15.8662 29.1384 15.4756C28.7478 15.0752 28.1375 14.875 27.3074 14.875C26.5945 14.875 26.0427 15.0361 25.6521 15.3584C25.2615 15.6807 25.0662 16.0908 25.0662 16.5889C25.0662 17.0576 25.2859 17.4385 25.7254 17.7314C26.1746 18.0146 26.9265 18.2637 27.9812 18.4785C29.0359 18.6836 29.9246 18.918 30.6472 19.1816C32.8836 20.002 34.0017 21.4229 34.0017 23.4443C34.0017 24.8896 33.3816 26.0615 32.1414 26.96C30.9011 27.8486 29.2996 28.293 27.3367 28.293C26.0086 28.293 24.8269 28.0586 23.7918 27.5898C22.7664 27.1113 21.9607 26.4619 21.3748 25.6416C20.7888 24.8115 20.4959 23.918 20.4959 22.9609H24.5095C24.5486 23.7129 24.8269 24.2891 25.3445 24.6895C25.8621 25.0898 26.5554 25.29 27.4246 25.29C28.2351 25.29 28.8455 25.1387 29.2556 24.8359C29.6755 24.5234 29.8855 24.1182 29.8855 23.6201ZM41.2993 8.25391V12.1504H44.0093V15.2559H41.2993V23.166C41.2993 23.752 41.4116 24.1719 41.6362 24.4258C41.8609 24.6797 42.2905 24.8066 42.9253 24.8066C43.3941 24.8066 43.8091 24.7725 44.1704 24.7041V27.9121C43.3404 28.166 42.4859 28.293 41.607 28.293C38.6382 28.293 37.1245 26.7939 37.0659 23.7959V15.2559H34.7515V12.1504H37.0659V8.25391H41.2993ZM55.3499 26.3887C54.305 27.6582 52.8596 28.293 51.0139 28.293C49.3147 28.293 48.0159 27.8047 47.1175 26.8281C46.2288 25.8516 45.7747 24.4209 45.7552 22.5361V12.1504H49.9886V22.3896C49.9886 24.04 50.7405 24.8652 52.2444 24.8652C53.68 24.8652 54.6663 24.3672 55.2034 23.3711V12.1504H59.4514V28H55.4671L55.3499 26.3887Z" fill="#0029FF"/>
<path d="M62 2L62.8981 4.76393H65.8042L63.4531 6.47214L64.3511 9.23607L62 7.52786L59.6489 9.23607L60.5469 6.47214L58.1958 4.76393H61.1019L62 2Z" fill="#FF6825"/>
</svg>
